<?xml version="1.0" encoding="iso-8859-1"?>
<!-- Uploaded to: SVG Repo, www.svgrepo.com, Generator: SVG Repo Mixer Tools -->
<!DOCTYPE svg PUBLIC "-//W3C//DTD SVG 1.1//EN" "http://www.w3.org/Graphics/SVG/1.1/DTD/svg11.dtd">
<svg height="800px" width="800px" version="1.1" id="Capa_1" xmlns="http://www.w3.org/2000/svg" xmlns:xlink="http://www.w3.org/1999/xlink" 
	 viewBox="0 0 297.5 297.5" xml:space="preserve">
<g id="XMLID_22_">
	<g>
		<path style="fill:#AE9676;" d="M25.609,113.39h185.09c-4.55,43.67-41.32,73.41-92.54,73.41
			C66.929,186.8,30.159,157.06,25.609,113.39z"/>
		<path style="fill:#AE9676;" d="M198.789,177.95l-4.01,20.82c-0.19,0.07-0.37,0.13-0.56,0.2c-13.09,4.64-20.99,17.96-21.13,35.63
			c-0.08,10.81,2.76,23.04,8.34,33.61l-1.78,9.27H54.559l-19.59-101.89c1.29,1.24,2.61,2.44,3.97,3.62
			c20.49,17.64,48.62,27.36,79.22,27.36c30.59,0,58.72-9.72,79.21-27.36C197.849,178.79,198.319,178.37,198.789,177.95z"/>
		<path style="fill:#CA4241;" d="M276.579,234.76c0.12,14.93-8.1,34.03-20.51,38.66c-8.76,3.26-17.46,0.16-17.78,0.04
			c-2.32-0.9-4.82-0.92-7.13,0c-0.09,0.03-8.91,3.26-17.79-0.04c-12.41-4.63-20.63-23.73-20.51-38.66
			c0.03-4.33,0.88-14.65,7.96-17.16c3.25-1.16,6.14-1.63,8.72-1.63c10.28,0,15.38,7.54,16.54,9.51c1.71,3.25,4.97,5.28,8.64,5.28
			s6.93-2.03,8.64-5.28c1.45-2.47,9.06-13.63,25.25-7.88C275.699,220.11,276.539,230.43,276.579,234.76z"/>
		<path style="fill:#CA4241;" d="M107.239,52.67c7.49,11.33,11.34,28.84,7.21,40.95h-86.77c-1.3-4.11-1.66-8.75,1.14-12.4
			c5.1-6.67,10.97-9.91,17.93-9.92h0.02c5.29,0,9.43,1.93,9.9,2.15c3.16,1.76,6.95,1.6,10.01-0.34c3.07-1.96,4.73-5.49,4.46-9.13
			c-0.05-0.71-1.07-17.57,18.41-22.24C97.679,39.78,104.629,48.73,107.239,52.67z"/>
		<path style="fill:#CA4241;" d="M202.779,80.14c0.04,4.3-0.6,8.92-1.77,13.48h-66.13c2.19-11.04,0.87-23.12-2.68-34.05
			c3.49,0.21,6.72,1.27,9.71,3.22c4.45,2.88,6.87,6.76,7.14,7.21c1.71,3.23,4.98,5.26,8.64,5.26s6.92-2.03,8.64-5.26
			c0.26-0.45,2.69-4.33,7.13-7.21c5.84-3.79,12.53-4.27,20.45-1.46C201.809,64.13,202.739,75.42,202.779,80.14z"/>
		<path d="M296.339,234.6c0.18,21.71-11.46,49.18-33.37,57.34c-5.54,2.06-10.89,2.75-15.59,2.75c-5.28,0-9.73-0.87-12.66-1.66
			c-5.54,1.49-16.5,3.29-28.25-1.09c-3.07-1.15-5.94-2.68-8.6-4.52l-0.35,1.81c-0.89,4.65-4.97,8.02-9.71,8.02H46.399
			c-4.74,0-8.81-3.37-9.71-8.02L1.339,105.37c-0.56-2.89,0.21-5.88,2.09-8.16c1.11-1.35,2.56-2.35,4.16-2.95
			c-1.65-9.3,0.16-18.05,5.53-25.06c8.64-11.28,18.87-16.04,28.3-17.31c-5.89-11.91-10.85-27.96-6.77-44.17
			c1.33-5.29,6.7-8.5,11.99-7.17c5.3,1.33,8.51,6.7,7.18,12c-2.42,9.6,0.38,19.83,4.19,28.18c5.04-7.86,13.45-14.98,26.92-18.22
			c13.71-3.28,27.8,3.44,37.96,18.03c9.88-1.83,18.32-0.17,25.14,3.06c1.55-13.19,6.14-29.34,18.39-40.71
			c4-3.71,10.26-3.48,13.97,0.52c3.71,4.01,3.48,10.26-0.53,13.97c-7.31,6.78-10.54,16.88-11.89,25.93
			c8.51-3.86,19.46-5.25,32.55-0.61c13.65,4.84,21.88,18.78,22.03,37.28c0.03,4.39-0.41,9-1.28,13.64h1.9
			c2.95,0,5.74,1.32,7.62,3.59c1.87,2.28,2.64,5.27,2.08,8.16l-17.54,91.24c3.57,0.53,6.85,1.55,9.82,2.89
			c1.56-12.37,5.98-27.3,17.39-37.88c4-3.71,10.26-3.48,13.97,0.52s3.48,10.26-0.53,13.97c-6.49,6.02-9.51,14.88-10.85,23.02
			c7.98-3.35,18.1-4.42,30.09-0.16C288.309,203.61,296.199,216.93,296.339,234.6z M256.069,273.42
			c12.41-4.63,20.63-23.73,20.51-38.66c-0.04-4.33-0.88-14.65-7.97-17.16c-16.19-5.75-23.8,5.41-25.25,7.88
			c-1.71,3.25-4.97,5.28-8.64,5.28s-6.93-2.03-8.64-5.28c-1.16-1.97-6.26-9.51-16.54-9.51c-2.58,0-5.47,0.47-8.72,1.63
			c-7.08,2.51-7.93,12.83-7.96,17.16c-0.12,14.93,8.1,34.03,20.51,38.66c8.88,3.3,17.7,0.07,17.79,0.04c2.31-0.92,4.81-0.9,7.13,0
			C238.609,273.58,247.309,276.68,256.069,273.42z M210.699,113.39H25.609c4.55,43.67,41.32,73.41,92.55,73.41
			C169.379,186.8,206.149,157.06,210.699,113.39z M201.009,93.62c1.17-4.56,1.81-9.18,1.77-13.48c-0.04-4.72-0.97-16.01-8.87-18.81
			c-7.92-2.81-14.61-2.33-20.45,1.46c-4.44,2.88-6.87,6.76-7.13,7.21c-1.72,3.23-4.98,5.26-8.64,5.26s-6.93-2.03-8.64-5.26
			c-0.27-0.45-2.69-4.33-7.14-7.21c-2.99-1.95-6.22-3.01-9.71-3.22c3.55,10.93,4.87,23.01,2.68,34.05H201.009z M194.779,198.77
			l4.01-20.82c-0.47,0.42-0.94,0.84-1.42,1.26c-20.49,17.64-48.62,27.36-79.21,27.36c-30.6,0-58.73-9.72-79.22-27.36
			c-1.36-1.18-2.68-2.38-3.97-3.62l19.59,101.89h125.09l1.78-9.27c-5.58-10.57-8.42-22.8-8.34-33.61
			c0.14-17.67,8.04-30.99,21.13-35.63C194.409,198.9,194.589,198.84,194.779,198.77z M114.449,93.62
			c4.13-12.11,0.28-29.62-7.21-40.95c-2.61-3.94-9.56-12.89-17.69-10.93c-19.48,4.67-18.46,21.53-18.41,22.24
			c0.27,3.64-1.39,7.17-4.46,9.13c-3.06,1.94-6.85,2.1-10.01,0.34c-0.47-0.22-4.61-2.15-9.9-2.15h-0.02
			c-6.96,0.01-12.83,3.25-17.93,9.92c-2.8,3.65-2.44,8.29-1.14,12.4H114.449z"/>
	</g>
	<g>
	</g>
</g>
</svg>