<?xml version="1.0" encoding="iso-8859-1"?>
<!-- Uploaded to: SVG Repo, www.svgrepo.com, Generator: SVG Repo Mixer Tools -->
<!DOCTYPE svg PUBLIC "-//W3C//DTD SVG 1.1//EN" "http://www.w3.org/Graphics/SVG/1.1/DTD/svg11.dtd">
<svg height="800px" width="800px" version="1.1" id="Capa_1" xmlns="http://www.w3.org/2000/svg" xmlns:xlink="http://www.w3.org/1999/xlink" 
	 viewBox="0 0 297.502 297.502" xml:space="preserve">
<g>
	<g id="XMLID_27_">
		<g>
			<path style="fill:#A0AD39;" d="M108.951,49.522c0.94,20.5,0.97,38.99-0.37,48.58h-12c3.95-24.3-4.8-53.82-12.09-72.87
				C100.971,33.002,108.601,48.702,108.951,49.522z"/>
			<path style="fill:#A0AD39;" d="M138.591,98.052h-10.19c0.98-8.88,1.4-22.85,0.45-45.34c-0.1-2.42-0.21-4.82-0.33-7.17
				C135.101,63.102,137.791,83.882,138.591,98.052z"/>
			<path style="fill:#A0AD39;" d="M169.101,98.052h-10.19c0.8-14.17,3.5-34.95,10.08-52.51c-0.12,2.35-0.24,4.75-0.34,7.17
				C167.701,75.202,168.131,89.172,169.101,98.052z"/>
			<path style="fill:#A0AD39;" d="M200.931,98.102h-12c-1.34-9.58-1.31-28.06-0.37-48.54c0.3-0.7,7.89-16.52,24.46-24.33
				C205.731,44.282,196.981,73.802,200.931,98.102z"/>
			<path style="fill:#C45A57;" d="M236.421,149.992h-6.13c-3.82,0-6.92,3.09-6.92,6.91c0,3.83,3.1,6.92,6.92,6.92h5.75
				c-6.68,34.63-61.13,67.51-87.29,80.03c-12.88-6.17-32.63-17.28-50.16-31.1h1.24c3.82,0,6.92-3.1,6.92-6.92
				c0-3.82-3.1-6.92-6.92-6.92h-16.31c-0.18,0-0.37,0.01-0.55,0.03c-12.93-13.01-22.18-27.48-22.18-42.04c0-13.09,2.81-22.25,8.6-28
				c8.41-8.33,23.99-10.54,43.06-11.04h72.66c19.05,0.5,34.61,2.72,43,11.04C232.821,133.582,235.561,140.512,236.421,149.992z
				 M188.291,140.602c0-3.83-3.1-6.92-6.92-6.92h-16.31c-3.82,0-6.92,3.09-6.92,6.92c0,3.82,3.1,6.91,6.92,6.91h16.31
				C185.191,147.512,188.291,144.422,188.291,140.602z M188.291,205.832c0-3.82-3.1-6.92-6.92-6.92h-32.62
				c-3.82,0-6.92,3.1-6.92,6.92c0,3.82,3.1,6.92,6.92,6.92h32.62C185.191,212.752,188.291,209.652,188.291,205.832z
				 M123.061,173.212c0-3.82-3.1-6.92-6.92-6.92h-32.62c-3.82,0-6.92,3.1-6.92,6.92c0,3.82,3.1,6.92,6.92,6.92h32.62
				C119.961,180.132,123.061,177.032,123.061,173.212z"/>
			<path d="M287.371,98.102c5.46,0,9.88,4.42,9.88,9.88s-4.42,9.88-9.88,9.88h-42.62c7.88,9.44,11.73,22.25,11.73,39.04
				c0,25.76-17.83,51.74-53.01,77.2c-18.05,13.06-35.91,22.48-44.83,26.89v26.38c0,5.45-4.43,9.88-9.89,9.88
				c-5.46,0-9.88-4.43-9.88-9.88v-26.38c-8.93-4.41-26.79-13.83-44.84-26.89c-35.17-25.46-53.01-51.44-53.01-77.2
				c0-16.79,3.86-29.6,11.73-39.04h-42.61c-5.46,0-9.89-4.42-9.89-9.88s4.43-9.88,9.89-9.88h66.32
				c6.42-25.93-10.43-68.31-18.08-83.53c-1.64-3.27-1.34-7.18,0.78-10.16s5.71-4.55,9.34-4.08c17.08,2.24,29.46,8.61,38.23,15.56
				c-0.14-1.63-0.29-3.25-0.43-4.85c-0.36-3.88,1.6-7.61,5-9.52c3.39-1.91,7.6-1.65,10.73,0.68c12.94,9.61,21.31,25.12,26.72,41.35
				c5.42-16.23,13.78-31.74,26.73-41.35c3.13-2.33,7.33-2.59,10.73-0.68c3.4,1.91,5.36,5.64,5,9.52c-0.15,1.6-0.29,3.22-0.43,4.85
				c8.77-6.95,21.15-13.32,38.23-15.56c3.63-0.47,7.22,1.1,9.34,4.08c2.12,2.98,2.42,6.89,0.77,10.16
				c-7.64,15.24-24.46,57.65-18.08,83.53H287.371z M230.291,149.992h6.13c-0.86-9.48-3.6-16.41-8.31-21.09
				c-8.39-8.32-23.95-10.54-43-11.04h-72.66c-19.07,0.5-34.65,2.71-43.06,11.04c-5.79,5.75-8.6,14.91-8.6,28
				c0,14.56,9.25,29.03,22.18,42.04c0.18-0.02,0.37-0.03,0.55-0.03h16.31c3.82,0,6.92,3.1,6.92,6.92c0,3.82-3.1,6.92-6.92,6.92
				h-1.24c17.53,13.82,37.28,24.93,50.16,31.1c26.16-12.52,80.61-45.4,87.29-80.03h-5.75c-3.82,0-6.92-3.09-6.92-6.92
				C223.371,153.082,226.471,149.992,230.291,149.992z M188.931,98.102h12c-3.95-24.3,4.8-53.82,12.09-72.87
				c-16.57,7.81-24.16,23.63-24.46,24.33C187.621,70.042,187.591,88.522,188.931,98.102z M158.911,98.052h10.19
				c-0.97-8.88-1.4-22.85-0.45-45.34c0.1-2.42,0.22-4.82,0.34-7.17C162.411,63.102,159.711,83.882,158.911,98.052z M128.401,98.052
				h10.19c-0.8-14.17-3.49-34.95-10.07-52.51c0.12,2.35,0.23,4.75,0.33,7.17C129.801,75.202,129.381,89.172,128.401,98.052z
				 M108.581,98.102c1.34-9.59,1.31-28.08,0.37-48.58c-0.35-0.82-7.98-16.52-24.46-24.29c7.29,19.05,16.04,48.57,12.09,72.87
				H108.581z"/>
			<path d="M279.221,195.942c5.45,0,9.88,4.43,9.88,9.89c0,5.46-4.43,9.88-9.88,9.88h-16.31c-5.46,0-9.89-4.42-9.89-9.88
				c0-5.46,4.43-9.89,9.89-9.89H279.221z"/>
			<path d="M246.601,244.872c5.46,0,9.88,4.42,9.88,9.88s-4.42,9.88-9.88,9.88h-16.31c-5.46,0-9.88-4.42-9.88-9.88
				s4.42-9.88,9.88-9.88H246.601z"/>
			<path d="M181.371,133.682c3.82,0,6.92,3.09,6.92,6.92c0,3.82-3.1,6.91-6.92,6.91h-16.31c-3.82,0-6.92-3.09-6.92-6.91
				c0-3.83,3.1-6.92,6.92-6.92H181.371z"/>
			<path d="M181.371,198.912c3.82,0,6.92,3.1,6.92,6.92c0,3.82-3.1,6.92-6.92,6.92h-32.62c-3.82,0-6.92-3.1-6.92-6.92
				c0-3.82,3.1-6.92,6.92-6.92H181.371z"/>
			<path d="M116.141,166.292c3.82,0,6.92,3.1,6.92,6.92c0,3.82-3.1,6.92-6.92,6.92h-32.62c-3.82,0-6.92-3.1-6.92-6.92
				c0-3.82,3.1-6.92,6.92-6.92H116.141z"/>
			<path d="M67.211,228.562c5.46,0,9.89,4.42,9.89,9.88c0,5.46-4.43,9.89-9.89,9.89h-32.61c-5.46,0-9.88-4.43-9.88-9.89
				c0-5.46,4.42-9.88,9.88-9.88H67.211z"/>
		</g>
		<g>
		</g>
	</g>
</g>
</svg>