<?xml version="1.0" encoding="iso-8859-1"?>
<!-- Uploaded to: SVG Repo, www.svgrepo.com, Generator: SVG Repo Mixer Tools -->
<!DOCTYPE svg PUBLIC "-//W3C//DTD SVG 1.1//EN" "http://www.w3.org/Graphics/SVG/1.1/DTD/svg11.dtd">
<svg height="800px" width="800px" version="1.1" id="Capa_1" xmlns="http://www.w3.org/2000/svg" xmlns:xlink="http://www.w3.org/1999/xlink" 
	 viewBox="0 0 297.494 297.494" xml:space="preserve">
<g>
	<g id="XMLID_28_">
		<g>
			<path style="fill:#9C8F31;" d="M277.542,70.424c0.22,3.25-0.39,5.8-1.63,6.82c-1.1,0.9-3.38,1.08-6.29,0.58
				c-0.2-5.42-0.52-10.51-0.89-15.16C269.082,62.764,277.192,65.094,277.542,70.424z"/>
			<path style="fill:#9C8F31;" d="M217.042,15.464c1.01,0.7,2.01,2.97,2.22,4.18c-8.27,3.08-15.28,9.19-20.94,18.15
				c-5.3,0.94-10.83-2.61-11.77-7.91c-0.93-5.29,2.62-10.36,7.91-11.3c2.17-0.38,4.36-0.02,6.32,1.04c3.41,1.84,7.67,0.64,9.62-2.7
				c0.69-1.18,1.85-1.99,3.18-2.23C214.802,14.474,216.022,14.754,217.042,15.464z"/>
			<path style="fill:#F0D3A7;" d="M245.802,43.084c12.88,17.93,12.4,104.44-24.51,151.68c-5.28,6.76-11.35,12.51-18.18,17.27h-119.3
				c-14.69-9.88-27.06-24.07-37-42.54c-10.92-20.31-16.3-41.24-18.81-54.16c106.06,12.05,161.29-5.78,183.59-58.68
				c4.38-10.39,9.86-16.53,16.28-18.24C233.882,36.804,243.132,39.374,245.802,43.084z M234.462,56.774c0-1.62-0.65-3.21-1.79-4.36
				c-1.15-1.14-2.74-1.8-4.37-1.8c-1.62,0-3.2,0.66-4.35,1.8c-1.15,1.15-1.81,2.74-1.81,4.36c0,1.63,0.66,3.22,1.81,4.36
				c1.15,1.15,2.73,1.8,4.35,1.8c1.63,0,3.22-0.65,4.37-1.8C233.812,59.984,234.462,58.404,234.462,56.774z M228.982,106.174
				c1.48-5.46-1.74-11.08-7.2-12.58c-5.46-1.49-11.11,1.72-12.61,7.18c-0.06,0.22-6.21,22.04-22.84,42.35
				c-19.58,23.92-44.93,35.78-75.57,35.34v-24.16c0-5.67-4.6-10.26-10.27-10.26s-10.27,4.59-10.27,10.26v33.88
				c0,5.31,4.05,9.74,9.33,10.22c4.41,0.41,8.66,0.6,12.79,0.6c45.23,0,73.91-23.12,90.39-43.5
				C221.862,131.844,228.692,107.214,228.982,106.174z"/>
			<path style="fill:#D5BA2F;" d="M58.142,232.574h39.68c-0.87,0.35-1.7,0.87-2.41,1.59l-16.94,16.94c-2.81,2.8-2.81,7.35,0,10.16
				c0.71,0.71,1.54,1.24,2.41,1.59h-22.74c-8.35,0-15.14-6.79-15.14-15.14c0-1.51,0.23-2.96,0.64-4.34l0.95,0.95
				c1.4,1.4,3.24,2.1,5.08,2.1s3.68-0.7,5.08-2.1c2.81-2.81,2.81-7.36,0-10.16l-0.95-0.95
				C55.182,232.794,56.632,232.574,58.142,232.574z"/>
			<path style="fill:#D5BA2F;" d="M242.042,243.374c0.41,1.38,0.64,2.83,0.64,4.34c0,5.92-3.42,11.04-8.39,13.53l-10.14-10.14
				c-2.81-2.81-7.36-2.81-10.16,0c-2.81,2.8-2.81,7.35,0,10.16l1.59,1.59h-60.78l1.59-1.59c2.81-2.81,2.81-7.36,0-10.16
				c-2.81-2.81-7.36-2.81-10.16,0l-11.76,11.75h-48.25c0.88-0.35,1.7-0.88,2.41-1.59l16.94-16.94c2.81-2.81,2.81-7.36,0-10.16
				c-0.71-0.72-1.53-1.24-2.41-1.59h78.54l-1.59,1.59c-2.81,2.8-2.81,7.35,0,10.16c1.4,1.4,3.24,2.1,5.08,2.1
				c1.84,0,3.68-0.7,5.08-2.1l11.76-11.75h25.51c1.51,0,2.96,0.22,4.34,0.64l-0.95,0.95c-2.81,2.8-2.81,7.35,0,10.16
				c1.4,1.4,3.24,2.1,5.08,2.1s3.68-0.7,5.08-2.1L242.042,243.374z"/>
			<path d="M291.892,69.474c0.53,8.12-1.92,14.84-6.89,18.9c-2.53,2.07-6.55,4.09-12.57,4.09c-0.81,0-1.68-0.05-2.58-0.13
				c-0.22,36.29-6.62,82.07-32.34,115.02c-1.39,1.78-2.83,3.48-4.3,5.14c5.09,0.82,9.81,2.71,13.94,5.44l0.71-0.71
				c2.81-2.81,7.36-2.81,10.17,0c2.81,2.8,2.81,7.35,0,10.16l-0.71,0.71c3.72,5.64,5.89,12.38,5.89,19.62
				c0,19.67-16,35.67-35.67,35.67h-106.62l1.59,1.59c2.81,2.81,2.81,7.36,0,10.17c-1.4,1.4-3.24,2.1-5.08,2.1
				c-1.84,0-3.68-0.7-5.08-2.1l-11.76-11.76h-42.45c-19.67,0-35.67-16-35.67-35.67c0-7.24,2.17-13.98,5.89-19.62l-0.71-0.71
				c-2.81-2.81-2.81-7.36,0-10.16c2.81-2.81,7.36-2.81,10.16,0l0.72,0.71c4.18-2.76,8.97-4.68,14.13-5.48
				c-9.17-9.5-17.29-20.78-24.24-33.81c-19.28-36.16-22.72-72.71-22.85-74.25c-0.28-3.1,0.87-6.16,3.12-8.32
				c2.25-2.15,5.36-3.17,8.44-2.77c58.13,7.66,100.44,6.7,129.35-2.95c21.87-7.3,35.81-19.28,44.79-38.55
				c-9.38-1.96-17.11-9.42-18.87-19.42c-2.31-13.1,6.47-25.64,19.57-27.95c3.35-0.59,6.79-0.45,10.08,0.38
				c2.54-2.19,5.65-3.68,9.04-4.27c5-0.88,10.03,0.23,14.19,3.14s7.04,8.7,7.92,13.69c10.94,0.34,20.27,5.17,24.94,8.09h11.75
				c3.82,0,7.33,2.12,9.1,5.51c1.77,3.39,1.51,7.49-0.68,10.62l-5.14,7.38C280.192,51.004,291.092,57.284,291.892,69.474z
				 M275.912,77.244c1.24-1.02,1.85-3.57,1.63-6.82c-0.35-5.33-8.46-7.66-8.81-7.76c0.37,4.65,0.69,9.74,0.89,15.16
				C272.532,78.324,274.812,78.144,275.912,77.244z M221.292,194.764c36.91-47.24,37.39-133.75,24.51-151.68
				c-2.67-3.71-11.92-6.28-17.93-4.67c-6.42,1.71-11.9,7.85-16.28,18.24c-22.3,52.9-77.53,70.73-183.59,58.68
				c2.51,12.92,7.89,33.85,18.81,54.16c9.94,18.47,22.31,32.66,37,42.54h119.3C209.942,207.274,216.012,201.524,221.292,194.764z
				 M242.682,247.714c0-1.51-0.23-2.96-0.64-4.34l-0.95,0.95c-1.4,1.4-3.24,2.1-5.08,2.1s-3.68-0.7-5.08-2.1
				c-2.81-2.81-2.81-7.36,0-10.16l0.95-0.95c-1.38-0.42-2.83-0.64-4.34-0.64h-25.51l-11.76,11.75c-1.4,1.4-3.24,2.1-5.08,2.1
				c-1.84,0-3.68-0.7-5.08-2.1c-2.81-2.81-2.81-7.36,0-10.16l1.59-1.59h-78.54c0.88,0.35,1.7,0.87,2.41,1.59
				c2.81,2.8,2.81,7.35,0,10.16l-16.94,16.94c-0.71,0.71-1.53,1.24-2.41,1.59h48.25l11.76-11.75c2.8-2.81,7.35-2.81,10.16,0
				c2.81,2.8,2.81,7.35,0,10.16l-1.59,1.59h60.78l-1.59-1.59c-2.81-2.81-2.81-7.36,0-10.16c2.8-2.81,7.35-2.81,10.16,0l10.14,10.14
				C239.262,258.754,242.682,253.634,242.682,247.714z M219.262,19.644c-0.21-1.21-1.21-3.48-2.22-4.18
				c-1.02-0.71-2.24-0.99-3.46-0.77c-1.33,0.24-2.49,1.05-3.18,2.23c-1.95,3.34-6.21,4.54-9.62,2.7c-1.96-1.06-4.15-1.42-6.32-1.04
				c-5.29,0.94-8.84,6.01-7.91,11.3c0.94,5.3,6.47,8.85,11.77,7.91C203.982,28.834,210.992,22.724,219.262,19.644z M97.822,232.574
				h-39.68c-1.51,0-2.96,0.22-4.34,0.64l0.95,0.95c2.81,2.8,2.81,7.35,0,10.16c-1.4,1.4-3.24,2.1-5.08,2.1s-3.68-0.7-5.08-2.1
				l-0.95-0.95c-0.41,1.38-0.64,2.83-0.64,4.34c0,8.35,6.79,15.14,15.14,15.14h22.74c-0.87-0.35-1.7-0.88-2.41-1.59
				c-2.81-2.81-2.81-7.36,0-10.16l16.94-16.94C96.122,233.444,96.952,232.924,97.822,232.574z"/>
			<path d="M232.672,52.414c1.14,1.15,1.79,2.74,1.79,4.36c0,1.63-0.65,3.21-1.79,4.36c-1.15,1.15-2.74,1.8-4.37,1.8
				c-1.62,0-3.2-0.65-4.35-1.8c-1.15-1.14-1.81-2.73-1.81-4.36c0-1.62,0.66-3.21,1.81-4.36c1.15-1.14,2.73-1.8,4.35-1.8
				C229.932,50.614,231.522,51.274,232.672,52.414z"/>
			<path d="M221.782,93.594c5.46,1.5,8.68,7.12,7.2,12.58c-0.29,1.04-7.12,25.67-26.25,49.33c-16.48,20.38-45.16,43.5-90.39,43.5
				c-4.13,0-8.38-0.19-12.79-0.6c-5.28-0.48-9.33-4.91-9.33-10.22v-33.88c0-5.67,4.6-10.26,10.27-10.26s10.27,4.59,10.27,10.26
				v24.16c30.64,0.44,55.99-11.42,75.57-35.34c16.63-20.31,22.78-42.13,22.84-42.35C210.672,95.314,216.322,92.104,221.782,93.594z"
				/>
		</g>
		<g>
		</g>
	</g>
</g>
</svg>