<?xml version="1.0" encoding="iso-8859-1"?>
<!-- Uploaded to: SVG Repo, www.svgrepo.com, Generator: SVG Repo Mixer Tools -->
<!DOCTYPE svg PUBLIC "-//W3C//DTD SVG 1.1//EN" "http://www.w3.org/Graphics/SVG/1.1/DTD/svg11.dtd">
<svg height="800px" width="800px" version="1.1" id="Capa_1" xmlns="http://www.w3.org/2000/svg" xmlns:xlink="http://www.w3.org/1999/xlink" 
	 viewBox="0 0 297.5 297.5" xml:space="preserve">
<g>
	<g id="XMLID_33_">
		<g>
			<path style="fill:#1E918A;" d="M129.845,88.5c6.76,7.35,8.69,17.29,9.13,24.27c-9.54-0.53-17.17-3.5-22.77-8.88
				c-7.76-7.45-10.68-18.32-11.77-26.11C115.615,78.7,124.135,82.29,129.845,88.5z"/>
			<path style="fill:#1E918A;" d="M193.425,96.21c-0.92,11.18-4.51,19.7-10.72,25.42c-7.25,6.65-16.99,8.62-23.96,9.1
				c0-0.63-0.06-1.24-0.18-1.83c0.8-8.67,3.72-15.68,8.74-20.91C174.765,100.23,185.635,97.3,193.425,96.21z"/>
			<path style="fill:#AE9676;" d="M242.095,41.95c16.14,73.51,16.13,147.96-0.05,221.47c-61.94,18.41-124.66,18.41-186.59,0
				c-16.18-73.51-16.19-147.96-0.05-221.47l20.21,4.46c0.72,0.16,1.44,0.23,2.16,0.23c3.32,0,6.49-1.66,8.36-4.51l8.48-12.93
				l12.63,8.9c4.23,2.98,10.04,2.24,13.39-1.7l9.98-11.77l11.39,10.4c3.82,3.49,9.67,3.49,13.49,0l11.39-10.4l9.98,11.77
				c3.35,3.94,9.16,4.68,13.39,1.7l12.63-8.9l8.48,12.93c2.28,3.47,6.46,5.18,10.52,4.28L242.095,41.95z M196.085,136.49
				c12.64-11.52,18.52-28.8,17.46-51.35c-0.24-5.13-4.33-9.25-9.47-9.52c-1.25-0.06-29.93-1.34-49.15,16.51
				c-2.17-5.83-5.4-11.73-10.21-17.01c-11.53-12.65-28.81-18.51-51.35-17.46c-5.14,0.24-9.25,4.33-9.52,9.46
				c-0.07,1.3-1.44,31.91,18.38,51.08c9.32,9.01,21.44,13.88,36.14,14.57c-0.04,2.79,0.06,5.65,0.31,8.61
				c0.02,0.19,0.05,0.38,0.07,0.56v54.82c-7.13,7.64-22.99,21.97-46.87,28.92c-3.71,1.08-5.85,4.96-4.77,8.67
				c0.89,3.06,3.69,5.05,6.72,5.05c0.65,0,1.31-0.09,1.96-0.28c19.08-5.55,33.55-15.09,43.34-23.38
				c-3.35,11.92-10.95,25.33-28.09,28.05c-3.81,0.61-6.42,4.19-5.81,8.01c0.54,3.45,3.52,5.91,6.9,5.91c0.37,0,0.74-0.03,1.11-0.09
				c18.47-2.93,31.7-14.84,38.27-34.44c1.09-3.26,1.9-6.46,2.51-9.48c7.15,8.22,17.08,18.24,27.72,24.69
				c1.13,0.68,2.38,1.01,3.62,1.01c2.37,0,4.68-1.2,5.99-3.37c2.01-3.31,0.95-7.62-2.36-9.62c-12.34-7.48-24.15-21.24-30.24-28.97
				v-46.68C168.985,150.23,184.135,147.38,196.085,136.49z"/>
			<path d="M260.265,31.57c18.58,80.28,18.58,161.69,0,241.97c-0.8,3.45-3.36,6.22-6.74,7.29c-34.76,10.95-69.77,16.42-104.78,16.42
				c-35,0-70.01-5.47-104.77-16.42c-3.38-1.07-5.94-3.84-6.74-7.29c-18.58-80.28-18.58-161.69,0-241.97
				c0.42-1.84,1.34-3.43,2.56-4.69c1.69-4.63,6.59-7.4,11.53-6.31l21.87,4.82l10.36-15.81c1.49-2.26,3.83-3.83,6.49-4.34
				c2.66-0.51,5.42,0.09,7.64,1.65l13.61,9.6l10.77-12.71c1.76-2.07,4.28-3.33,6.99-3.51c2.73-0.17,5.38,0.77,7.38,2.6l12.31,11.23
				l12.31-11.23c2.01-1.83,4.67-2.77,7.38-2.6c2.71,0.18,5.24,1.44,6.99,3.51l10.78,12.71l13.61-9.6c2.21-1.56,4.96-2.15,7.63-1.65
				c2.66,0.51,5.01,2.08,6.49,4.34l10.37,15.81l21.87-4.82c4.94-1.1,9.83,1.68,11.53,6.31
				C258.925,28.14,259.835,29.73,260.265,31.57z M242.045,263.42c16.18-73.51,16.19-147.96,0.05-221.47l-20.21,4.46
				c-4.06,0.9-8.24-0.81-10.52-4.28l-8.48-12.93l-12.63,8.9c-4.23,2.98-10.04,2.24-13.39-1.7l-9.98-11.77l-11.39,10.4
				c-3.82,3.49-9.67,3.49-13.49,0l-11.39-10.4l-9.98,11.77c-3.35,3.94-9.16,4.68-13.39,1.7l-12.63-8.9l-8.48,12.93
				c-1.87,2.85-5.04,4.51-8.36,4.51c-0.72,0-1.44-0.07-2.16-0.23l-20.21-4.46c-16.14,73.51-16.13,147.96,0.05,221.47
				C117.385,281.83,180.105,281.83,242.045,263.42z"/>
			<path d="M213.545,85.14c1.06,22.55-4.82,39.83-17.46,51.35c-11.95,10.89-27.1,13.74-37.34,14.27v46.68
				c6.09,7.73,17.9,21.49,30.24,28.97c3.31,2,4.37,6.31,2.36,9.62c-1.31,2.17-3.62,3.37-5.99,3.37c-1.24,0-2.49-0.33-3.62-1.01
				c-10.64-6.45-20.57-16.47-27.72-24.69c-0.61,3.02-1.42,6.22-2.51,9.48c-6.57,19.6-19.8,31.51-38.27,34.44
				c-0.37,0.06-0.74,0.09-1.11,0.09c-3.38,0-6.36-2.46-6.9-5.91c-0.61-3.82,2-7.4,5.81-8.01c17.14-2.72,24.74-16.13,28.09-28.05
				c-9.79,8.29-24.26,17.83-43.34,23.38c-0.65,0.19-1.31,0.28-1.96,0.28c-3.03,0-5.83-1.99-6.72-5.05
				c-1.08-3.71,1.06-7.59,4.77-8.67c23.88-6.95,39.74-21.28,46.87-28.92v-54.82c-0.02-0.18-0.05-0.37-0.07-0.56
				c-0.25-2.96-0.35-5.82-0.31-8.61c-14.7-0.69-26.82-5.56-36.14-14.57c-19.82-19.17-18.45-49.78-18.38-51.08
				c0.27-5.13,4.38-9.22,9.52-9.46c22.54-1.05,39.82,4.81,51.35,17.46c4.81,5.28,8.04,11.18,10.21,17.01
				c19.22-17.85,47.9-16.57,49.15-16.51C209.215,75.89,213.305,80.01,213.545,85.14z M182.705,121.63
				c6.21-5.72,9.8-14.24,10.72-25.42c-7.79,1.09-18.66,4.02-26.12,11.78c-5.02,5.23-7.94,12.24-8.74,20.91
				c0.12,0.59,0.18,1.2,0.18,1.83C165.715,130.25,175.455,128.28,182.705,121.63z M138.975,112.77c-0.44-6.98-2.37-16.92-9.13-24.27
				c-5.71-6.21-14.23-9.8-25.41-10.72c1.09,7.79,4.01,18.66,11.77,26.11C121.805,109.27,129.435,112.24,138.975,112.77z"/>
		</g>
		<g>
		</g>
	</g>
</g>
</svg>